# xmcd
#
# Track frame offsets: 
#        150
#        16217
#        47065
#        81390
#
# Disc length: 1430 seconds
#
# Revision: 2
# Processed by: cddbd v1.5.1PL2 Copyright (c) Steve Scherf et al.
# Submitted via: ExactAudioCopy v0.95a5
#
DISCID=28059404
DTITLE=Gina G - Gimme Some Love [UK]
DYEAR=1997
DGENRE=Eurodance
TTITLE0=01 - Gina G - Gimme Some Love (Album Version)
TTITLE1=02 - Gina G - Higher Than Love (Motive8 Pumptronic 12'' Mix)
TTITLE2=03 - Gina G - Higher Than Love (Motiv8 Steinway Mix)
TTITLE3=04 - Gina G - Higher Than Love (Rhythm Masters Mix)
EXTD=
EXTT0=
EXTT1=
EXTT2=
EXTT3=
PLAYORDER=
